<?xml version="1.0" encoding="UTF-8"?>
<svg width="200" height="50" viewBox="0 0 200 50" version="1.1" xmlns="http://www.w3.org/2000/svg">
  <style>
    .signature {
      fill: none;
      stroke: #000;
      stroke-width: 2;
      stroke-linecap: round;
      stroke-linejoin: round;
    }
  </style>
  <path class="signature" d="M20,35 C25,25 30,15 35,25 C40,35 45,35 50,25 M60,35 C65,25 70,15 75,25 C80,35 85,35 90,25 M100,15 C105,25 110,35 115,25 M125,15 C130,25 135,35 140,25 M150,35 C155,25 160,15 165,25 C170,35 175,35 180,25"/>
</svg>